<?xml version="1.0" encoding="UTF-8" standalone="no"?>
<svg
   xmlns:dc="http://purl.org/dc/elements/1.1/"
   xmlns:cc="http://creativecommons.org/ns#"
   xmlns:rdf="http://www.w3.org/1999/02/22-rdf-syntax-ns#"
   xmlns:svg="http://www.w3.org/2000/svg"
   xmlns="http://www.w3.org/2000/svg"
   xmlns:sodipodi="http://sodipodi.sourceforge.net/DTD/sodipodi-0.dtd"
   xmlns:inkscape="http://www.inkscape.org/namespaces/inkscape"
   width="30"
   height="20"
   viewBox="0 0 7.9375 5.2916665"
   version="1.1"
   id="svg1663"
   inkscape:version="1.0 (4035a4fb49, 2020-05-01)"
   sodipodi:docname="titlebutton-maximize.svg"
   inkscape:export-filename="/home/paul/Downloads/mmolch-xfce/xfwm4/shade-icon.png"
   inkscape:export-xdpi="96"
   inkscape:export-ydpi="96">
  <defs
     id="defs1657" />
  <sodipodi:namedview
     id="base"
     pagecolor="#ffffff"
     bordercolor="#666666"
     borderopacity="1.0"
     inkscape:pageopacity="0.0"
     inkscape:pageshadow="2"
     inkscape:zoom="30.248457"
     inkscape:cx="11.934225"
     inkscape:cy="7.1266656"
     inkscape:document-units="mm"
     inkscape:current-layer="g3841"
     showgrid="true"
     units="px"
     inkscape:window-width="1920"
     inkscape:window-height="1012"
     inkscape:window-x="0"
     inkscape:window-y="0"
     inkscape:window-maximized="1"
     inkscape:measure-start="1,16"
     inkscape:measure-end="1.02857,15.9429"
     inkscape:document-rotation="0">
    <inkscape:grid
       type="xygrid"
       id="grid815" />
  </sodipodi:namedview>
  <metadata
     id="metadata1660">
    <rdf:RDF>
      <cc:Work
         rdf:about="">
        <dc:format>image/svg+xml</dc:format>
        <dc:type
           rdf:resource="http://purl.org/dc/dcmitype/StillImage" />
        <dc:title></dc:title>
      </cc:Work>
    </rdf:RDF>
  </metadata>
  <g
     inkscape:label="Layer 1"
     inkscape:groupmode="layer"
     id="layer1"
     transform="translate(0,-292.76669)">
    <g
       id="g3837"
       transform="matrix(0.71264185,-0.70148238,0.70143814,0.7126868,-206.23386,86.208687)">
      <g
         id="g3841">
        <path
           d="m 3.338072,295.81074 c -0.3058019,-0.2948 -0.5181483,-0.52238 -0.7848658,-0.61381 a 0.63475634,0.55231432 44.54606 0 0 -0.4070822,0.0107 c -0.1297699,0.0523 -0.2519829,0.1477 -0.3873801,0.28527 l -0.4121688,0.41875 c -0.1356036,0.13777 -0.2285353,0.26108 -0.2790981,0.39184 -0.051007,0.13078 -0.051878,0.27459 -0.00427,0.4072 0.095465,0.26547 0.3265605,0.47394 0.6261836,0.77507 l 0.4841439,0.47651 c 0.3058036,0.29482 0.518146,0.52235 0.7848655,0.61381 a 0.63475634,0.55231432 44.54606 0 0 0.4073151,-0.0106 c 0.129536,-0.0525 0.2517401,-0.14797 0.3871369,-0.28554 l 0.412171,-0.41873 c 0.1356035,-0.13777 0.228535,-0.26107 0.2790956,-0.39188 a 0.63475634,0.55231432 44.54606 0 0 0.00426,-0.4072 c -0.095453,-0.26531 -0.3265537,-0.47383 -0.626172,-0.7749 l -0.4831805,-0.47556 z m -0.2046435,0.21076 0.4812621,0.47374 c 0.2998587,0.3013 0.4898267,0.50684 0.5362677,0.63583 0.023659,0.0644 0.02609,0.11303 -0.00415,0.19045 -0.030236,0.0774 -0.1003977,0.17905 -0.2223987,0.30301 l -0.4121692,0.41875 c -0.1220006,0.12397 -0.2224822,0.19569 -0.2994042,0.22717 -0.077177,0.0311 -0.1250354,0.0302 -0.1899018,0.008 -0.1294615,-0.0442 -0.3384553,-0.23133 -0.6447388,-0.52662 l -0.4812591,-0.4737 c -0.299862,-0.30135 -0.4905499,-0.50757 -0.5367499,-0.63632 -0.023437,-0.0644 -0.025357,-0.11223 0.00463,-0.18997 0.030238,-0.0774 0.1003971,-0.17906 0.2223983,-0.30302 l 0.4121696,-0.41874 c 0.1219999,-0.12398 0.2224789,-0.19573 0.2994018,-0.2272 0.077175,-0.0311 0.1250754,-0.0297 0.1899018,-0.008 0.1294618,0.0442 0.3384552,0.23132 0.644736,0.52658 z"
           overflow="visible"
           id="path2"
           inkscape:connector-curvature="0"
           style="font-weight:400;font-family:sans-serif;overflow:visible;opacity:1;fill:#505050;fill-opacity:1;stroke:#505050;stroke-width:0.120967;stroke-miterlimit:4;stroke-dasharray:none;stroke-opacity:1" />
        <rect
           transform="rotate(44.546057)"
           y="207.61633"
           x="203.07166"
           height="2.3812575"
           width="2.9106121"
           id="rect849"
           style="opacity:0;fill-opacity:0.256436;stroke:#565151;stroke-width:0.437435;stroke-miterlimit:4;stroke-dasharray:none;stroke-opacity:1" />
        <rect
           style="fill:#151515;fill-opacity:1;stroke:#151515;stroke-width:0.113672;stroke-opacity:1"
           id="rect836"
           width="3.3215446"
           height="0.44632894"
           x="208.59085"
           y="207.60783"
           transform="rotate(44.546057)"
           ry="0.20438173" />
      </g>
    </g>
  </g>
</svg>
